<?xml version="1.0" encoding="utf-8"?>
<!-- Generator: Adobe Illustrator 23.0.3, SVG Export Plug-In . SVG Version: 6.00 Build 0)  -->
<svg version="1.1" id="Layer_1" xmlns="http://www.w3.org/2000/svg" xmlns:xlink="http://www.w3.org/1999/xlink" x="0px" y="0px"
	 viewBox="0 0 346.8 67.7" style="enable-background:new 0 0 346.8 67.7;" xml:space="preserve">
<style type="text/css">
	.st0{fill:#FFFFFF;}
	.st1{fill:#A6A8A5;}
</style>
<path class="st0" d="M89.6,39.3v4.6c0,3.9-1.9,5.9-5.9,5.9h-1c-3.9,0-5.8-1.9-5.8-5.8v-6.7h3.5v6.8c0,1.6,0.8,2.4,2.4,2.4h0.7
	c1.6,0,2.4-0.8,2.4-2.4v-4.8c0-1.6-0.5-2.3-1.6-3L80,33.1c-2.4-1.7-3-3.3-3-5.9v-3.8c0-3.9,1.9-5.9,5.9-5.9h0.9
	c3.9,0,5.8,1.9,5.8,5.8V29H86v-5.8c0-1.6-0.8-2.4-2.4-2.4H83c-1.6,0-2.4,0.8-2.4,2.4v4c0,1.6,0.6,2.3,1.6,3l4.4,3.2
	C88.9,35.1,89.6,36.5,89.6,39.3z M109.1,43.9c0,3.9-1.9,5.9-5.9,5.9h-1.1c-3.9,0-5.9-1.9-5.9-5.9V17.8h3.6v26.3
	c0,1.6,0.8,2.4,2.4,2.4h0.9c1.6,0,2.4-0.8,2.4-2.4V17.8h3.6C109.1,17.8,109.1,43.9,109.1,43.9z M119.5,49.5h-3.6V17.8h6.3
	c3.9,0,5.9,1.9,5.9,5.9v8c0,3.9-1.9,5.9-5.9,5.9h-2.6v11.9L119.5,49.5z M122,21.1h-2.5v13.2h2.5c1.6,0,2.4-0.8,2.4-2.4v-8.4
	C124.4,21.9,123.6,21.1,122,21.1z M144.3,17.8v3.4H138v10.5h6.1V35H138v11.2h6.4v3.4h-10.1V17.8L144.3,17.8L144.3,17.8z M163.5,38.8
	v10.7h-3.6V38.9c0-1.9-0.9-2.8-2.8-2.8h-2.7v13.3h-3.6V17.8h6.7c3.9,0,5.9,1.9,5.9,5.9v5.9c0,2.9-1,4.3-2.8,5
	C162.6,35.1,163.5,36.4,163.5,38.8L163.5,38.8z M157.4,21.1h-3V33h2.7c1.8,0,2.7-0.9,2.7-2.7v-6.8C159.8,21.9,159,21.1,157.4,21.1z
	 M173.9,49.5h-3.6V17.8h3.6C173.9,17.8,173.9,49.5,173.9,49.5z M187.9,49.8h-1.4c-3.9,0-5.9-1.9-5.9-5.9V23.4c0-3.9,1.9-5.9,5.9-5.9
	h1.4c3.9,0,5.9,1.9,5.9,5.9v20.5C193.8,47.8,191.9,49.8,187.9,49.8L187.9,49.8z M187.8,20.8h-1.1c-1.6,0-2.4,0.8-2.4,2.4V44
	c0,1.6,0.8,2.4,2.4,2.4h1.1c1.6,0,2.4-0.8,2.4-2.4V23.2C190.2,21.6,189.4,20.8,187.8,20.8z M213.3,38.8v10.7h-3.6V38.9
	c0-1.9-0.9-2.8-2.8-2.8h-2.7v13.3h-3.6V17.8h6.7c3.9,0,5.9,1.9,5.9,5.9v5.9c0,2.9-1,4.3-2.8,5C212.4,35.1,213.3,36.4,213.3,38.8
	L213.3,38.8z M207.2,21.1h-3V33h2.7c1.8,0,2.7-0.9,2.7-2.7v-6.8C209.6,21.9,208.8,21.1,207.2,21.1z M238.6,42.8l4-25h5.6v31.7h-3.5
	V23.3l-4.3,26.2h-3.7l-4.3-26.2v26.2H229V17.8h5.7L238.6,42.8L238.6,42.8z M262.2,49.8h-1.4c-3.9,0-5.9-1.9-5.9-5.9V23.4
	c0-3.9,1.9-5.9,5.9-5.9h1.4c3.9,0,5.9,1.9,5.9,5.9v20.5C268.1,47.8,266.2,49.8,262.2,49.8L262.2,49.8z M262.1,20.8H261
	c-1.6,0-2.4,0.8-2.4,2.4V44c0,1.6,0.8,2.4,2.4,2.4h1.1c1.6,0,2.4-0.8,2.4-2.4V23.2C264.5,21.6,263.7,20.8,262.1,20.8L262.1,20.8z
	 M277.9,49.5V21.1h-4.8v-3.4h13.1v3.4h-4.8v28.4L277.9,49.5L277.9,49.5z M298.5,49.8h-1.4c-3.9,0-5.9-1.9-5.9-5.9V23.4
	c0-3.9,1.9-5.9,5.9-5.9h1.4c3.9,0,5.9,1.9,5.9,5.9v20.5C304.4,47.8,302.5,49.8,298.5,49.8L298.5,49.8z M298.4,20.8h-1.1
	c-1.6,0-2.4,0.8-2.4,2.4V44c0,1.6,0.8,2.4,2.4,2.4h1.1c1.6,0,2.4-0.8,2.4-2.4V23.2C300.8,21.6,300,20.8,298.4,20.8z M323.9,38.8
	v10.7h-3.6V38.9c0-1.9-0.9-2.8-2.8-2.8h-2.7v13.3h-3.6V17.8h6.7c3.9,0,5.9,1.9,5.9,5.9v5.9c0,2.9-1,4.3-2.8,5
	C323,35.1,323.9,36.4,323.9,38.8z M317.8,21.1h-3V33h2.7c1.8,0,2.7-0.9,2.7-2.7v-6.8C320.2,21.9,319.4,21.1,317.8,21.1L317.8,21.1z
	 M343.2,39.3v4.6c0,3.9-1.9,5.9-5.9,5.9h-1c-3.9,0-5.8-1.9-5.8-5.8v-6.7h3.5v6.8c0,1.6,0.8,2.4,2.4,2.4h0.7c1.6,0,2.4-0.8,2.4-2.4
	v-4.8c0-1.6-0.5-2.3-1.6-3l-4.4-3.2c-2.4-1.7-3-3.3-3-5.9v-3.8c0-3.9,1.9-5.9,5.9-5.9h0.9c3.9,0,5.8,1.9,5.8,5.8V29h-3.5v-5.8
	c0-1.6-0.8-2.4-2.4-2.4h-0.6c-1.6,0-2.4,0.8-2.4,2.4v4c0,1.6,0.6,2.3,1.6,3l4.4,3.2C342.4,35.1,343.2,36.5,343.2,39.3L343.2,39.3z
	 M76.3,55.7H79c0.9,0,1.5,0.2,2,0.7c0.3,0.3,0.5,0.8,0.5,1.3c0,1.1-0.7,1.6-1.3,1.9c0.9,0.3,1.7,0.8,1.7,1.9c0,1.4-1.1,2.2-2.8,2.2
	h-2.8L76.3,55.7L76.3,55.7z M80.7,57.9c0-0.8-0.6-1.3-1.7-1.3h-1.8v2.8h1.7C80,59.3,80.7,58.8,80.7,57.9z M79,60.1h-1.9V63h2
	c1.2,0,1.9-0.5,1.9-1.5C81,60.6,80.3,60.1,79,60.1z M84.3,55.7h2.8c0.9,0,1.7,0.3,2.1,0.8c0.4,0.4,0.6,1,0.6,1.7
	c0,1.3-0.8,2.1-1.9,2.3l2.2,3.3h-1l-2-3.1h-1.8v3.1h-0.9L84.3,55.7L84.3,55.7z M86.9,59.9c1.3,0,2-0.7,2-1.7c0-1.1-0.7-1.7-1.9-1.7
	h-1.8v3.4C85.2,59.9,86.9,59.9,86.9,59.9z M94.8,55.7h0.9l3.1,8.1h-0.9L97,61.7h-3.6l-0.8,2.1h-0.9C91.7,63.8,94.8,55.7,94.8,55.7z
	 M96.7,60.9l-1.5-4.1l-1.5,4.1H96.7z M100.9,55.7h2.3c2.2,0,3.8,1.6,3.8,4v0.1c0,2.4-1.5,4-3.8,4h-2.3V55.7z M101.8,56.5V63h1.4
	c1.8,0,2.9-1.3,2.9-3.2v-0.1c0-1.9-1.2-3.2-2.9-3.2C103.2,56.5,101.8,56.5,101.8,56.5z M109.5,55.7h2.3c2.2,0,3.8,1.6,3.8,4v0.1
	c0,2.4-1.5,4-3.8,4h-2.3V55.7z M110.4,56.5V63h1.4c1.8,0,2.9-1.3,2.9-3.2v-0.1c0-1.9-1.2-3.2-2.9-3.2
	C111.8,56.5,110.4,56.5,110.4,56.5z M117.8,59.8c0-2.5,1.4-4.2,3.5-4.2s3.5,1.7,3.5,4.1v0.1c0,2.4-1.4,4.1-3.5,4.1
	S117.8,62.2,117.8,59.8z M123.8,59.8c0-2-1.1-3.4-2.6-3.4s-2.6,1.4-2.6,3.3v0.1c0,2,1.1,3.3,2.6,3.3S123.8,61.8,123.8,59.8z
	 M126.9,59.8c0-2.5,1.5-4.2,3.5-4.2c1.1,0,1.8,0.4,2.5,1l-0.5,0.7c-0.5-0.5-1.1-0.8-1.9-0.8c-1.5,0-2.6,1.4-2.6,3.3
	c0,2,1.1,3.3,2.6,3.3c0.8,0,1.4-0.3,2-0.9l0.5,0.6c-0.7,0.7-1.5,1.1-2.6,1.1C128.4,63.9,126.9,62.3,126.9,59.8z M135.2,55.7h0.9v4.7
	l3.8-4.7h1.1l-2.9,3.5l3.1,4.5h-1l-2.7-3.8l-1.4,1.6v2.3h-0.9L135.2,55.7L135.2,55.7z M147.8,56.6l-1.3,0.5l-0.1-0.8l1.7-0.6h0.6
	v8.1h-0.9C147.8,63.8,147.8,56.6,147.8,56.6z M151,62.9l0.5-0.6c0.5,0.5,1.2,0.9,1.9,0.9c1,0,1.8-0.8,1.8-1.8c0-1.1-0.7-1.7-1.8-1.7
	c-0.6,0-1,0.2-1.4,0.4l-0.6-0.4l0.2-3.9h4v0.8h-3.3l-0.2,2.6c0.4-0.2,0.8-0.3,1.3-0.3c1.4,0,2.5,0.9,2.5,2.4c0,1.6-1.1,2.6-2.6,2.6
	C152.5,63.9,151.6,63.5,151,62.9L151,62.9z M159.2,56.6l-1.3,0.5l-0.1-0.8l1.7-0.6h0.6v8.1h-0.9C159.2,63.8,159.2,56.6,159.2,56.6z
	 M162.6,59.8c0-2.5,1.1-4.2,2.9-4.2c1.8,0,2.9,1.7,2.9,4.1v0.1c0,2.4-1.1,4.1-2.9,4.1C163.7,63.9,162.6,62.2,162.6,59.8z
	 M167.6,59.8c0-2-0.8-3.4-2-3.4s-2,1.4-2,3.3v0.1c0,1.9,0.8,3.3,2,3.3S167.6,61.8,167.6,59.8z M174.2,61.9h-3.7l-0.2-0.6l3.9-5.6
	h0.8v5.5h1.1v0.7H175v1.9h-0.8C174.2,63.8,174.2,61.9,174.2,61.9z M174.2,61.2V57l-2.9,4.2C171.3,61.2,174.2,61.2,174.2,61.2z"/>
<g>
	<g>
		<path class="st1" d="M33.1,61.1c-15,0-27.2-12.2-27.2-27.2c0-15,12.2-27.2,27.2-27.2c15,0,27.2,12.2,27.2,27.2
			C60.2,48.9,48,61.1,33.1,61.1z M33.1,9.6C19.7,9.6,8.8,20.5,8.8,33.9c0,13.4,10.9,24.3,24.3,24.3c13.4,0,24.3-10.9,24.3-24.3
			C57.3,20.5,46.4,9.6,33.1,9.6z"/>
	</g>
	<g>
		<path class="st1" d="M21.5,36.3l1.2-7.4h1.7v9.4h-1.1v-7.8L22,38.3h-1.1l-1.3-7.8v7.8h-1v-9.4h1.7L21.5,36.3z"/>
		<path class="st1" d="M27.5,38.4h-0.4c-1.2,0-1.8-0.6-1.8-1.8v-6.1c0-1.2,0.6-1.8,1.8-1.8h0.4c1.2,0,1.8,0.6,1.8,1.8v6.1
			C29.3,37.8,28.7,38.4,27.5,38.4z M27.5,29.7h-0.3c-0.5,0-0.7,0.2-0.7,0.7v6.2c0,0.5,0.2,0.7,0.7,0.7h0.3c0.5,0,0.7-0.2,0.7-0.7
			v-6.2C28.2,30,28,29.7,27.5,29.7z"/>
		<path class="st1" d="M31.2,38.3v-8.4h-1.4v-1h3.9v1h-1.4v8.4H31.2z"/>
		<path class="st1" d="M36.3,38.4h-0.4c-1.2,0-1.8-0.6-1.8-1.8v-6.1c0-1.2,0.6-1.8,1.8-1.8h0.4c1.2,0,1.8,0.6,1.8,1.8v6.1
			C38.1,37.8,37.5,38.4,36.3,38.4z M36.3,29.7H36c-0.5,0-0.7,0.2-0.7,0.7v6.2c0,0.5,0.2,0.7,0.7,0.7h0.3c0.5,0,0.7-0.2,0.7-0.7v-6.2
			C37,30,36.8,29.7,36.3,29.7z"/>
		<path class="st1" d="M42.9,35.1v3.2h-1.1v-3.1c0-0.6-0.3-0.8-0.8-0.8h-0.8v4h-1.1v-9.4h2c1.2,0,1.8,0.6,1.8,1.8v1.8
			c0,0.8-0.3,1.3-0.8,1.5C42.6,34,42.9,34.4,42.9,35.1z M41,29.8h-0.9v3.5H41c0.5,0,0.8-0.3,0.8-0.8v-2C41.8,30.1,41.5,29.8,41,29.8
			z"/>
		<path class="st1" d="M47.6,35.2v1.4c0,1.2-0.6,1.8-1.8,1.8h-0.3c-1.2,0-1.7-0.6-1.7-1.7v-2h1.1v2c0,0.5,0.2,0.7,0.7,0.7h0.2
			c0.5,0,0.7-0.2,0.7-0.7v-1.4c0-0.5-0.2-0.7-0.5-0.9l-1.3-1c-0.7-0.5-0.9-1-0.9-1.8v-1.1c0-1.2,0.6-1.8,1.8-1.8h0.3
			c1.2,0,1.7,0.6,1.7,1.7v1.7h-1.1v-1.7c0-0.5-0.2-0.7-0.7-0.7h-0.2c-0.5,0-0.7,0.2-0.7,0.7v1.2c0,0.5,0.2,0.7,0.5,0.9l1.3,0.9
			C47.4,34,47.6,34.4,47.6,35.2z"/>
	</g>
	<g>
		<path class="st1" d="M47.1,47.4l0.2-0.1c0.4-0.1,0.7-0.3,1-0.6c0.4-0.4,0.5-0.9,0.2-1.2c-0.1-0.1-0.2-0.2-0.4-0.2
			c-0.2,0-0.6,0.1-1,0.3c-0.5,0.3-0.9,0.4-1.3,0.4c-0.3,0-0.6-0.1-0.9-0.4c-0.3-0.3-0.4-0.7-0.4-1.1c0-0.4,0.2-0.8,0.6-1.1
			c0.4-0.4,0.8-0.7,1.4-0.8l0.2,0l0.2,0.6l-0.2,0c-0.5,0.1-0.9,0.3-1.2,0.7c-0.5,0.5-0.5,1-0.2,1.4c0.1,0.1,0.3,0.2,0.5,0.2
			c0.2,0,0.6-0.1,1-0.3c0.6-0.3,0.9-0.4,1.3-0.4c0.3,0,0.6,0.1,0.8,0.3c0.5,0.5,0.5,1.3-0.2,2c-0.4,0.4-0.8,0.6-1.2,0.7L47.2,48
			L47.1,47.4z"/>
		<path class="st1" d="M45.1,43.7c0.4-0.4,0.9-0.6,1.4-0.8l0.1,0.2c-0.5,0.1-0.9,0.3-1.3,0.7c-0.5,0.5-0.6,1.2-0.2,1.6
			c0.4,0.4,0.8,0.4,1.7-0.1c0.9-0.4,1.4-0.5,1.8-0.1c0.5,0.4,0.4,1.2-0.2,1.7c-0.4,0.4-0.7,0.5-1.1,0.7l-0.1-0.2
			c0.4-0.1,0.7-0.3,1-0.6c0.5-0.5,0.5-1.1,0.2-1.4c-0.3-0.3-0.8-0.3-1.6,0.1c-1,0.5-1.5,0.5-1.9,0C44.4,45.1,44.5,44.3,45.1,43.7z"
			/>
		<path class="st1" d="M41.3,48.7c-0.6-1-0.4-2,0.5-2.5c0.3-0.2,0.6-0.3,0.9-0.3c0.6,0,1.2,0.4,1.6,1l1.6,2.7l-0.5,0.3l-1.6-2.7
			c-0.3-0.5-0.7-0.8-1.1-0.8c-0.2,0-0.4,0.1-0.6,0.2c-0.6,0.4-0.7,1-0.3,1.8l1.6,2.7l-0.5,0.3L41.3,48.7z"/>
		<path class="st1" d="M41.8,46.3c0.8-0.5,1.6-0.2,2.2,0.7l1.5,2.5l-0.2,0.1l-1.5-2.5c-0.5-0.8-1.3-1.1-1.9-0.6
			c-0.7,0.4-0.8,1.2-0.3,2l1.5,2.5L43,51.1l-1.5-2.5C40.9,47.7,41.1,46.8,41.8,46.3z"/>
		<path class="st1" d="M38.9,52.8c-0.7,0-1.2-0.4-1.5-1.1c-0.3-1,0.2-1.8,1.3-2.2l0.6-0.2l-0.5-1.6l0.5-0.2l1.5,4.8l-1.2,0.4
			C39.4,52.7,39.1,52.8,38.9,52.8z M38.9,50c-0.3,0.1-1.3,0.5-0.9,1.5c0.1,0.5,0.5,0.7,0.9,0.7c0.2,0,0.4,0,0.6-0.1l0.7-0.2
			l-0.6-2.1L38.9,50z"/>
		<path class="st1" d="M38.8,49.7l0.8-0.2l-0.5-1.6l0.2-0.1l1.4,4.4l-1.1,0.3c-0.9,0.3-1.7,0-2-0.8C37.3,50.6,37.9,50,38.8,49.7z
			 M39.5,52.3l0.8-0.3l-0.8-2.4l-0.8,0.2c-0.8,0.3-1.3,0.8-1.1,1.7C38,52.3,38.7,52.6,39.5,52.3z"/>
		<polygon class="st1" points="33.1,53.2 35.6,53 35.5,51.4 33.2,51.6 33.2,51 35.4,50.8 35.3,49.1 32.8,49.3 32.7,48.8 35.8,48.5 
			36.2,53.5 33.2,53.7 		"/>
		<path class="st1" d="M35.6,48.7l0.4,4.6l-2.7,0.2l0-0.2l2.5-0.2l-0.2-2l-2.2,0.2l0-0.2l2.2-0.2l-0.2-2.1l-2.5,0.2l0-0.2L35.6,48.7
			z"/>
		<path class="st1" d="M29.7,53.4c-1-0.2-1.5-0.8-1.4-1.7c0.1-0.7,0.6-1.1,1.3-1.2c-0.1-0.1-0.2-0.2-0.3-0.4l-0.9-1.6l0-0.2l0.2,0
			l0.4,0.1l0.8,1.5c0.2,0.5,0.4,0.6,0.8,0.7l0.5,0.1l0.3-1.9l0.6,0.1l-0.8,4.9L29.7,53.4z M30.1,50.9c-0.5,0-1.1,0.2-1.2,0.8
			c-0.1,0.8,0.5,1,0.9,1.1l0.9,0.1l0.3-1.9L30.4,51C30.3,51,30.2,50.9,30.1,50.9z"/>
		<path class="st1" d="M28.8,48.4l0.8,1.5c0.3,0.5,0.5,0.7,0.9,0.8l0.7,0.1l0.3-1.9l0.2,0L31,53.4l-1.3-0.2
			c-0.9-0.1-1.4-0.7-1.2-1.5c0.1-0.8,0.9-1.1,1.5-1.2c-0.2-0.1-0.3-0.3-0.5-0.6l-0.9-1.6l0,0L28.8,48.4z M29.8,53l1.1,0.2l0.4-2.3
			l-0.8-0.1c-0.9-0.1-1.6,0.2-1.8,1C28.6,52.4,29,52.9,29.8,53z"/>
		<rect x="24.2" y="49.8" transform="matrix(0.3309 -0.9437 0.9437 0.3309 -29.4089 58.6923)" class="st1" width="5" height="0.6"/>
		<path class="st1" d="M27.5,47.9L26,52.3l-0.2-0.1l1.5-4.4L27.5,47.9z"/>
		<path class="st1" d="M22.9,51c-0.3,0-0.6-0.1-0.9-0.2c-0.5-0.3-0.8-0.8-0.9-1.4c-0.1-0.6,0.1-1.2,0.5-1.9c0.5-0.9,1.3-1.5,2.1-1.5
			c0.3,0,0.6,0.1,0.9,0.2c0.5,0.3,0.8,0.8,0.9,1.4c0.1,0.6-0.1,1.2-0.5,1.9C24.5,50.5,23.7,51,22.9,51z M23.8,46.6
			c-0.6,0-1.2,0.5-1.7,1.2c-0.3,0.5-0.4,1-0.4,1.5c0,0.4,0.2,0.8,0.6,1c0.2,0.1,0.4,0.2,0.6,0.2c0.6,0,1.2-0.5,1.7-1.2
			c0.3-0.5,0.4-1,0.4-1.5c0-0.4-0.2-0.8-0.6-1C24.2,46.7,24,46.6,23.8,46.6z"/>
		<path class="st1" d="M24.6,46.5c0.9,0.5,1.1,1.8,0.3,3c-0.7,1.2-1.9,1.7-2.8,1.2c-0.9-0.5-1.1-1.8-0.3-3
			C22.5,46.4,23.7,46,24.6,46.5z M22.2,50.4c0.8,0.5,1.8,0,2.5-1.1c0.6-1.1,0.5-2.2-0.3-2.7c-0.8-0.5-1.8,0-2.5,1.1
			C21.3,48.8,21.4,50,22.2,50.4z"/>
		<path class="st1" d="M17.8,47.4c-0.7-0.7-0.8-1.6-0.1-2.2c0.3-0.3,0.6-0.4,1-0.4c0.3,0,0.5,0.1,0.7,0.2c0-0.1,0-0.3,0-0.5l0.2-1.9
			l0.2-0.2l0.1,0.1l0.3,0.3L20,44.5c-0.1,0.5,0,0.7,0.2,1l0.4,0.4l1.4-1.4l0.4,0.4l-3.5,3.5L17.8,47.4z M18.7,45.3
			c-0.3,0-0.5,0.1-0.7,0.3c-0.2,0.2-0.3,0.4-0.3,0.7c0,0.2,0.2,0.5,0.4,0.8l0.7,0.7l1.4-1.4l-0.4-0.4C19.5,45.5,19.1,45.3,18.7,45.3
			z"/>
		<path class="st1" d="M20,42.8l-0.2,1.7c-0.1,0.6,0,0.8,0.3,1.2l0.5,0.5l1.4-1.4l0.1,0.1l-3.3,3.3l-0.9-0.9
			c-0.6-0.6-0.7-1.4-0.1-1.9c0.6-0.6,1.4-0.4,1.9,0c-0.1-0.2-0.1-0.4-0.1-0.8l0.2-1.8l0,0L20,42.8z M18.1,47.2l0.8,0.8l1.6-1.6
			l-0.6-0.6c-0.6-0.6-1.5-0.8-2-0.2C17.5,46,17.5,46.6,18.1,47.2z"/>
	</g>
	<g>
		<path class="st1" d="M19.4,24.3l0.2,0c0.5-0.1,0.9-0.3,1.2-0.7c0.2-0.2,0.4-0.5,0.4-0.7c0-0.2,0-0.5-0.2-0.6
			c-0.1-0.1-0.3-0.2-0.5-0.2c-0.2,0-0.6,0.1-1,0.3c-0.6,0.3-0.9,0.4-1.3,0.4c-0.3,0-0.6-0.1-0.8-0.3c-0.5-0.5-0.5-1.3,0.2-2
			c0.4-0.4,0.8-0.6,1.2-0.7l0.2-0.1l0.2,0.5l-0.2,0.1c-0.4,0.1-0.7,0.3-1,0.6c-0.4,0.4-0.5,0.9-0.2,1.2c0.1,0.1,0.2,0.2,0.4,0.2
			c0.2,0,0.6-0.1,1-0.3c0.5-0.3,0.9-0.4,1.3-0.4c0.3,0,0.6,0.1,0.9,0.4c0.6,0.6,0.5,1.5-0.2,2.2c-0.4,0.4-0.8,0.7-1.4,0.8l-0.2,0
			L19.4,24.3z"/>
		<path class="st1" d="M21,23.9c-0.4,0.4-0.9,0.6-1.4,0.8l-0.1-0.2c0.5-0.1,0.9-0.3,1.3-0.7c0.5-0.5,0.6-1.2,0.2-1.6
			c-0.4-0.4-0.8-0.4-1.7,0.1c-0.9,0.4-1.4,0.5-1.8,0.1c-0.5-0.4-0.4-1.2,0.2-1.7c0.4-0.4,0.7-0.5,1.1-0.7l0.1,0.2
			c-0.4,0.1-0.7,0.3-1,0.6c-0.5,0.5-0.5,1.1-0.2,1.4c0.3,0.3,0.8,0.3,1.6-0.1c1-0.5,1.5-0.5,1.9,0C21.7,22.5,21.6,23.3,21,23.9z"/>
		<path class="st1" d="M23.5,21.7c-0.6,0-1.2-0.4-1.6-1L20.3,18l0.5-0.3l1.6,2.7c0.3,0.5,0.7,0.8,1.1,0.8c0.2,0,0.4-0.1,0.6-0.2
			c0.3-0.2,0.5-0.4,0.5-0.7c0.1-0.3,0-0.7-0.3-1l-1.6-2.7l0.5-0.3l1.6,2.7c0.6,1,0.4,2-0.5,2.5C24.1,21.6,23.8,21.7,23.5,21.7z"/>
		<path class="st1" d="M24.3,21.3c-0.8,0.5-1.6,0.2-2.2-0.7l-1.5-2.5l0.2-0.1l1.5,2.5c0.5,0.8,1.3,1.1,1.9,0.6
			c0.7-0.4,0.8-1.2,0.3-2l-1.5-2.5l0.2-0.1l1.5,2.5C25.2,19.9,25.1,20.8,24.3,21.3z"/>
		<path class="st1" d="M25.3,15.3l1.2-0.4c0.3-0.1,0.5-0.1,0.7-0.1c0.7,0,1.2,0.4,1.5,1.1c0.2,0.5,0.1,1-0.2,1.4
			c-0.2,0.4-0.6,0.6-1.2,0.8l-0.6,0.2l0.5,1.6l-0.5,0.2L25.3,15.3z M26.6,17.8l0.6-0.2c0.4-0.1,0.7-0.3,0.8-0.6
			c0.2-0.3,0.2-0.6,0.1-0.9c-0.1-0.5-0.5-0.7-0.9-0.7c-0.2,0-0.4,0-0.6,0.1L26,15.7L26.6,17.8z"/>
		<path class="st1" d="M27.3,17.9l-0.8,0.2l0.5,1.6l-0.2,0.1l-1.4-4.4l1.1-0.3c0.9-0.3,1.7,0,2,0.8C28.8,16.9,28.2,17.6,27.3,17.9z
			 M26.6,15.3l-0.8,0.3l0.8,2.4l0.8-0.2c0.8-0.3,1.3-0.8,1.1-1.7C28.1,15.3,27.4,15,26.6,15.3z"/>
		<polygon class="st1" points="29.9,14.1 33,13.9 33,14.4 30.5,14.6 30.7,16.2 32.9,16 32.9,16.6 30.7,16.8 30.8,18.5 33.3,18.3 
			33.4,18.8 30.3,19.1 		"/>
		<path class="st1" d="M30.5,18.9l-0.4-4.6l2.7-0.2l0,0.2l-2.5,0.2l0.2,2l2.2-0.2l0,0.2l-2.2,0.2l0.2,2.1l2.5-0.2l0,0.2L30.5,18.9z"
			/>
		<path class="st1" d="M37.5,19.4l-0.4-0.1l-0.8-1.5c-0.2-0.5-0.4-0.6-0.8-0.7L35,17.1L34.7,19l-0.6-0.1l0.8-4.9l1.5,0.2
			c1,0.2,1.5,0.8,1.4,1.7c-0.1,0.7-0.6,1.1-1.3,1.2c0.1,0.1,0.2,0.2,0.3,0.4l0.9,1.6l0,0.2L37.5,19.4z M35.7,16.6c0.1,0,0.2,0,0.3,0
			c0.5,0,1.1-0.2,1.2-0.8c0.1-0.8-0.5-1-0.9-1.1l-0.9-0.1l-0.3,1.9L35.7,16.6z"/>
		<path class="st1" d="M37.3,19.2l-0.8-1.5C36.2,17.2,36,17,35.6,17l-0.7-0.1l-0.3,1.9l-0.2,0l0.7-4.6l1.3,0.2
			c0.9,0.1,1.4,0.7,1.2,1.5c-0.1,0.8-0.9,1.1-1.5,1.2c0.2,0.1,0.3,0.3,0.5,0.6l0.9,1.6l0,0L37.3,19.2z M36.4,14.6l-1.1-0.2l-0.4,2.3
			l0.8,0.1c0.9,0.1,1.6-0.2,1.8-1C37.6,15.1,37.2,14.7,36.4,14.6z"/>
		<rect x="36.9" y="17.2" transform="matrix(0.331 -0.9436 0.9436 0.331 9.8594 48.919)" class="st1" width="5" height="0.6"/>
		<path class="st1" d="M38.6,19.7l1.5-4.4l0.2,0.1l-1.5,4.4L38.6,19.7z"/>
		<path class="st1" d="M42.3,21.5c-0.3,0-0.6-0.1-0.9-0.2c-0.5-0.3-0.8-0.8-0.9-1.4c-0.1-0.6,0.1-1.2,0.5-1.9
			c0.5-0.9,1.3-1.5,2.1-1.5c0.3,0,0.6,0.1,0.9,0.2c1,0.6,1.2,1.9,0.4,3.2C43.9,21,43.1,21.5,42.3,21.5z M43.2,17.1
			c-0.6,0-1.2,0.5-1.7,1.2c-0.6,1-0.5,2.1,0.2,2.5c0.2,0.1,0.4,0.2,0.6,0.2c0.6,0,1.2-0.5,1.7-1.2c0.3-0.5,0.4-1,0.4-1.5
			c0-0.4-0.2-0.8-0.6-1C43.6,17.2,43.4,17.1,43.2,17.1z"/>
		<path class="st1" d="M41.5,21.1c-0.9-0.5-1.1-1.8-0.3-3c0.7-1.2,1.9-1.7,2.8-1.2c0.9,0.5,1.1,1.8,0.3,3
			C43.6,21.2,42.4,21.6,41.5,21.1z M43.9,17.1c-0.8-0.5-1.8,0-2.5,1.1c-0.6,1.1-0.5,2.2,0.3,2.7c0.8,0.5,1.8,0,2.5-1.1
			C44.8,18.8,44.7,17.6,43.9,17.1z"/>
		<path class="st1" d="M46.1,25.1l-0.3-0.3l0.2-1.7c0.1-0.5,0-0.7-0.2-1l-0.4-0.4l-1.4,1.4l-0.4-0.4l3.5-3.5l1.1,1.1
			c0.7,0.7,0.8,1.6,0.1,2.2c-0.3,0.3-0.6,0.4-1,0.4c-0.3,0-0.5-0.1-0.7-0.2c0,0.1,0,0.3,0,0.5L46.4,25l-0.2,0.2L46.1,25.1z
			 M46.3,21.7c0.3,0.3,0.7,0.5,1.1,0.5l0,0c0.3,0,0.5-0.1,0.7-0.3c0.6-0.6,0.2-1.1-0.1-1.4l-0.7-0.7l-1.4,1.4L46.3,21.7z"/>
		<path class="st1" d="M46.1,24.7l0.2-1.7c0.1-0.6,0-0.8-0.3-1.2l-0.5-0.5l-1.4,1.4L44,22.7l3.3-3.3l0.9,0.9
			c0.6,0.6,0.7,1.4,0.1,1.9c-0.6,0.6-1.4,0.4-1.9,0c0.1,0.2,0.1,0.4,0.1,0.8l-0.2,1.8l0,0L46.1,24.7z M48,20.4l-0.8-0.8l-1.6,1.6
			l0.6,0.6c0.6,0.6,1.5,0.8,2,0.2C48.7,21.6,48.6,21,48,20.4z"/>
	</g>
</g>
</svg>
