<?xml version="1.0" encoding="utf-8"?>
<!-- Generator: Adobe Illustrator 19.1.1, SVG Export Plug-In . SVG Version: 6.00 Build 0)  -->
<svg version="1.1" id="Layer_1" xmlns="http://www.w3.org/2000/svg" xmlns:xlink="http://www.w3.org/1999/xlink" x="0px" y="0px"
	 viewBox="0 0 346.8 67.7" enable-background="new 0 0 346.8 67.7" xml:space="preserve">
<g>
	<g>
		<g>
			<path fill="#FFFFFF" d="M33.3,64.2C16.6,64.2,3,50.6,3,33.9C3,17.1,16.6,3.5,33.3,3.5c16.7,0,30.3,13.6,30.3,30.3
				C63.6,50.6,50,64.2,33.3,64.2z M33.3,6.8C18.3,6.8,6.2,18.9,6.2,33.9C6.2,48.8,18.3,61,33.3,61c14.9,0,27.1-12.2,27.1-27.1
				C60.4,18.9,48.2,6.8,33.3,6.8z"/>
		</g>
	</g>
	<g>
		<path fill="#FFFFFF" d="M33.3,43.2l4.1-25.5h5.7v32.4h-3.6V23.3l-4.4,26.8h-3.8l-4.4-26.8v26.8h-3.5V17.7h5.8L33.3,43.2z"/>
	</g>
</g>
<g>
	<path fill="#FFFFFF" d="M89.6,39.3v4.6c0,3.9-1.9,5.9-5.9,5.9h-1c-3.9,0-5.8-1.9-5.8-5.8v-6.7h3.5v6.8c0,1.6,0.8,2.4,2.4,2.4h0.7
		c1.6,0,2.4-0.8,2.4-2.4v-4.8c0-1.6-0.5-2.3-1.6-3L80,33.1c-2.4-1.7-3-3.3-3-5.9v-3.8c0-3.9,1.9-5.9,5.9-5.9h0.9
		c3.9,0,5.8,1.9,5.8,5.8V29H86v-5.8c0-1.6-0.8-2.4-2.4-2.4h-0.6c-1.6,0-2.4,0.8-2.4,2.4v4c0,1.6,0.6,2.3,1.6,3l4.4,3.2
		C88.9,35.1,89.6,36.5,89.6,39.3z"/>
	<path fill="#FFFFFF" d="M109.1,43.9c0,3.9-1.9,5.9-5.9,5.9h-1.1c-3.9,0-5.9-1.9-5.9-5.9V17.8h3.6v26.3c0,1.6,0.8,2.4,2.4,2.4h0.9
		c1.6,0,2.4-0.8,2.4-2.4V17.8h3.6V43.9z"/>
	<path fill="#FFFFFF" d="M119.5,49.5h-3.6V17.8h6.3c3.9,0,5.9,1.9,5.9,5.9v8c0,3.9-1.9,5.9-5.9,5.9h-2.6V49.5z M122,21.1h-2.5v13.2
		h2.5c1.6,0,2.4-0.8,2.4-2.4v-8.4C124.4,21.9,123.6,21.1,122,21.1z"/>
	<path fill="#FFFFFF" d="M144.3,17.8v3.4H138v10.5h6.1V35H138v11.2h6.4v3.4h-10.1V17.8H144.3z"/>
	<path fill="#FFFFFF" d="M163.5,38.8v10.7h-3.6V38.9c0-1.9-0.9-2.8-2.8-2.8h-2.7v13.3h-3.6V17.8h6.7c3.9,0,5.9,1.9,5.9,5.9v5.9
		c0,2.9-1,4.3-2.8,5C162.6,35.1,163.5,36.4,163.5,38.8z M157.4,21.1h-3V33h2.7c1.8,0,2.7-0.9,2.7-2.7v-6.8
		C159.8,21.9,159,21.1,157.4,21.1z"/>
	<path fill="#FFFFFF" d="M173.9,49.5h-3.6V17.8h3.6V49.5z"/>
	<path fill="#FFFFFF" d="M187.9,49.8h-1.4c-3.9,0-5.9-1.9-5.9-5.9V23.4c0-3.9,1.9-5.9,5.9-5.9h1.4c3.9,0,5.9,1.9,5.9,5.9v20.5
		C193.8,47.8,191.9,49.8,187.9,49.8z M187.8,20.8h-1.1c-1.6,0-2.4,0.8-2.4,2.4v20.8c0,1.6,0.8,2.4,2.4,2.4h1.1
		c1.6,0,2.4-0.8,2.4-2.4V23.2C190.2,21.6,189.4,20.8,187.8,20.8z"/>
	<path fill="#FFFFFF" d="M213.3,38.8v10.7h-3.6V38.9c0-1.9-0.9-2.8-2.8-2.8h-2.7v13.3h-3.6V17.8h6.7c3.9,0,5.9,1.9,5.9,5.9v5.9
		c0,2.9-1,4.3-2.8,5C212.4,35.1,213.3,36.4,213.3,38.8z M207.2,21.1h-3V33h2.7c1.8,0,2.7-0.9,2.7-2.7v-6.8
		C209.6,21.9,208.8,21.1,207.2,21.1z"/>
	<path fill="#FFFFFF" d="M238.6,42.8l4-25h5.6v31.7h-3.5V23.3l-4.3,26.2h-3.7l-4.3-26.2v26.2h-3.4V17.8h5.7L238.6,42.8z"/>
	<path fill="#FFFFFF" d="M262.2,49.8h-1.4c-3.9,0-5.9-1.9-5.9-5.9V23.4c0-3.9,1.9-5.9,5.9-5.9h1.4c3.9,0,5.9,1.9,5.9,5.9v20.5
		C268.1,47.8,266.2,49.8,262.2,49.8z M262.1,20.8H261c-1.6,0-2.4,0.8-2.4,2.4v20.8c0,1.6,0.8,2.4,2.4,2.4h1.1c1.6,0,2.4-0.8,2.4-2.4
		V23.2C264.5,21.6,263.7,20.8,262.1,20.8z"/>
	<path fill="#FFFFFF" d="M277.9,49.5V21.1h-4.8v-3.4h13.1v3.4h-4.8v28.4H277.9z"/>
	<path fill="#FFFFFF" d="M298.5,49.8h-1.4c-3.9,0-5.9-1.9-5.9-5.9V23.4c0-3.9,1.9-5.9,5.9-5.9h1.4c3.9,0,5.9,1.9,5.9,5.9v20.5
		C304.4,47.8,302.5,49.8,298.5,49.8z M298.4,20.8h-1.1c-1.6,0-2.4,0.8-2.4,2.4v20.8c0,1.6,0.8,2.4,2.4,2.4h1.1
		c1.6,0,2.4-0.8,2.4-2.4V23.2C300.8,21.6,300,20.8,298.4,20.8z"/>
	<path fill="#FFFFFF" d="M323.9,38.8v10.7h-3.6V38.9c0-1.9-0.9-2.8-2.8-2.8h-2.7v13.3h-3.6V17.8h6.7c3.9,0,5.9,1.9,5.9,5.9v5.9
		c0,2.9-1,4.3-2.8,5C323,35.1,323.9,36.4,323.9,38.8z M317.8,21.1h-3V33h2.7c1.8,0,2.7-0.9,2.7-2.7v-6.8
		C320.2,21.9,319.4,21.1,317.8,21.1z"/>
	<path fill="#FFFFFF" d="M343.2,39.3v4.6c0,3.9-1.9,5.9-5.9,5.9h-1c-3.9,0-5.8-1.9-5.8-5.8v-6.7h3.5v6.8c0,1.6,0.8,2.4,2.4,2.4h0.7
		c1.6,0,2.4-0.8,2.4-2.4v-4.8c0-1.6-0.5-2.3-1.6-3l-4.4-3.2c-2.4-1.7-3-3.3-3-5.9v-3.8c0-3.9,1.9-5.9,5.9-5.9h0.9
		c3.9,0,5.8,1.9,5.8,5.8V29h-3.5v-5.8c0-1.6-0.8-2.4-2.4-2.4h-0.6c-1.6,0-2.4,0.8-2.4,2.4v4c0,1.6,0.6,2.3,1.6,3l4.4,3.2
		C342.4,35.1,343.2,36.5,343.2,39.3z"/>
</g>
<g>
	<path fill="#FFFFFF" d="M76.3,55.7H79c0.9,0,1.5,0.2,2,0.7c0.3,0.3,0.5,0.8,0.5,1.3v0c0,1.1-0.7,1.6-1.3,1.9
		c0.9,0.3,1.7,0.8,1.7,1.9v0c0,1.4-1.1,2.2-2.8,2.2h-2.8V55.7z M80.7,57.9c0-0.8-0.6-1.3-1.7-1.3h-1.8v2.8h1.7
		C80,59.3,80.7,58.8,80.7,57.9L80.7,57.9z M79,60.1h-1.9V63h2c1.2,0,1.9-0.5,1.9-1.5v0C81,60.6,80.3,60.1,79,60.1z"/>
	<path fill="#FFFFFF" d="M84.3,55.7h2.8c0.9,0,1.7,0.3,2.1,0.8c0.4,0.4,0.6,1,0.6,1.7v0c0,1.3-0.8,2.1-1.9,2.3l2.2,3.3h-1l-2-3.1
		h-1.8v3.1h-0.9V55.7z M86.9,59.9c1.3,0,2-0.7,2-1.7v0c0-1.1-0.7-1.7-1.9-1.7h-1.8v3.4H86.9z"/>
	<path fill="#FFFFFF" d="M94.8,55.7h0.9l3.1,8.1h-0.9L97,61.7h-3.6l-0.8,2.1h-0.9L94.8,55.7z M96.7,60.9l-1.5-4.1l-1.5,4.1H96.7z"/>
	<path fill="#FFFFFF" d="M100.9,55.7h2.3c2.2,0,3.8,1.6,3.8,4v0.1c0,2.4-1.5,4-3.8,4h-2.3V55.7z M101.8,56.5V63h1.4
		c1.8,0,2.9-1.3,2.9-3.2v-0.1c0-1.9-1.2-3.2-2.9-3.2H101.8z"/>
	<path fill="#FFFFFF" d="M109.5,55.7h2.3c2.2,0,3.8,1.6,3.8,4v0.1c0,2.4-1.5,4-3.8,4h-2.3V55.7z M110.4,56.5V63h1.4
		c1.8,0,2.9-1.3,2.9-3.2v-0.1c0-1.9-1.2-3.2-2.9-3.2H110.4z"/>
	<path fill="#FFFFFF" d="M117.8,59.8L117.8,59.8c0-2.5,1.4-4.2,3.5-4.2c2.1,0,3.5,1.7,3.5,4.1v0.1c0,2.4-1.4,4.1-3.5,4.1
		C119.2,63.9,117.8,62.2,117.8,59.8z M123.8,59.8L123.8,59.8c0-2-1.1-3.4-2.6-3.4c-1.5,0-2.6,1.4-2.6,3.3v0.1c0,2,1.1,3.3,2.6,3.3
		C122.7,63.1,123.8,61.8,123.8,59.8z"/>
	<path fill="#FFFFFF" d="M126.9,59.8L126.9,59.8c0-2.5,1.5-4.2,3.5-4.2c1.1,0,1.8,0.4,2.5,1l-0.5,0.7c-0.5-0.5-1.1-0.8-1.9-0.8
		c-1.5,0-2.6,1.4-2.6,3.3v0c0,2,1.1,3.3,2.6,3.3c0.8,0,1.4-0.3,2-0.9l0.5,0.6c-0.7,0.7-1.5,1.1-2.6,1.1
		C128.4,63.9,126.9,62.3,126.9,59.8z"/>
	<path fill="#FFFFFF" d="M135.2,55.7h0.9v4.7l3.8-4.7h1.1l-2.9,3.5l3.1,4.5h-1l-2.7-3.8l-1.4,1.6v2.3h-0.9V55.7z"/>
	<path fill="#FFFFFF" d="M147.8,56.6l-1.3,0.5l-0.1-0.8l1.7-0.6h0.6v8.1h-0.9V56.6z"/>
	<path fill="#FFFFFF" d="M151,62.9l0.5-0.6c0.5,0.5,1.2,0.9,1.9,0.9c1,0,1.8-0.8,1.8-1.8v0c0-1.1-0.7-1.7-1.8-1.7
		c-0.6,0-1,0.2-1.4,0.4l-0.6-0.4l0.2-3.9h4v0.8h-3.3l-0.2,2.6c0.4-0.2,0.8-0.3,1.3-0.3c1.4,0,2.5,0.9,2.5,2.4v0
		c0,1.6-1.1,2.6-2.6,2.6C152.5,63.9,151.6,63.5,151,62.9z"/>
	<path fill="#FFFFFF" d="M159.2,56.6l-1.3,0.5l-0.1-0.8l1.7-0.6h0.6v8.1h-0.9V56.6z"/>
	<path fill="#FFFFFF" d="M162.6,59.8L162.6,59.8c0-2.5,1.1-4.2,2.9-4.2c1.8,0,2.9,1.7,2.9,4.1v0.1c0,2.4-1.1,4.1-2.9,4.1
		C163.7,63.9,162.6,62.2,162.6,59.8z M167.6,59.8L167.6,59.8c0-2-0.8-3.4-2-3.4c-1.2,0-2,1.4-2,3.3v0.1c0,1.9,0.8,3.3,2,3.3
		C166.8,63.1,167.6,61.8,167.6,59.8z"/>
	<path fill="#FFFFFF" d="M174.2,61.9h-3.7l-0.2-0.6l3.9-5.6h0.8v5.5h1.1v0.7H175v1.9h-0.8V61.9z M174.2,61.2V57l-2.9,4.2H174.2z"/>
</g>
</svg>
