<?xml version="1.0" encoding="utf-8"?>
<!DOCTYPE svg PUBLIC "-//W3C//DTD SVG 1.1//EN" "http://www.w3.org/Graphics/SVG/1.1/DTD/svg11.dtd">
<svg version="1.1" id="Layer_1" xmlns="http://www.w3.org/2000/svg" xmlns:xlink="http://www.w3.org/1999/xlink" x="0px" y="0px"
	 viewBox="0 0 288 288" enable-background="new 0 0 288 288" xml:space="preserve">
<g>
	<g>
		<path fill="#84A0A0" d="M144,275.5c-72.5,0-131.5-59-131.5-131.5c0-72.5,59-131.5,131.5-131.5c72.5,0,131.5,59,131.5,131.5
			C275.5,216.5,216.5,275.5,144,275.5z M144,26.5C79.2,26.5,26.5,79.2,26.5,144c0,64.8,52.7,117.5,117.5,117.5
			c64.8,0,117.5-52.7,117.5-117.5C261.5,79.2,208.8,26.5,144,26.5z"/>
	</g>
	<g>
		<path fill="#84A0A0" d="M88,155.5l5.8-36h8.1v45.7h-5.1v-37.8l-6.3,37.8h-5.4l-6.3-37.8v37.8h-5v-45.7h8.2L88,155.5z"/>
		<path fill="#84A0A0" d="M117.2,165.6h-2c-5.7,0-8.5-2.8-8.5-8.5v-29.5c0-5.7,2.8-8.5,8.5-8.5h2c5.7,0,8.5,2.8,8.5,8.5v29.5
			C125.7,162.8,122.9,165.6,117.2,165.6z M117,123.9h-1.6c-2.4,0-3.5,1.1-3.5,3.5v30c0,2.4,1.1,3.5,3.5,3.5h1.6
			c2.4,0,3.5-1.1,3.5-3.5v-30C120.5,125,119.4,123.9,117,123.9z"/>
		<path fill="#84A0A0" d="M134.9,165.2v-40.9h-6.9v-4.8H147v4.8h-6.9v40.9H134.9z"/>
		<path fill="#84A0A0" d="M159.8,165.6h-2c-5.7,0-8.5-2.8-8.5-8.5v-29.5c0-5.7,2.8-8.5,8.5-8.5h2c5.7,0,8.5,2.8,8.5,8.5v29.5
			C168.3,162.8,165.5,165.6,159.8,165.6z M159.6,123.9H158c-2.4,0-3.5,1.1-3.5,3.5v30c0,2.4,1.1,3.5,3.5,3.5h1.6
			c2.4,0,3.5-1.1,3.5-3.5v-30C163.1,125,162,123.9,159.6,123.9z"/>
		<path fill="#84A0A0" d="M191.4,149.8v15.4h-5.2V150c0-2.7-1.2-4-4-4h-3.9v19.2h-5.2v-45.7h9.7c5.7,0,8.5,2.8,8.5,8.5v8.5
			c0,4.1-1.4,6.1-4,7.2C190.2,144.5,191.4,146.3,191.4,149.8z M182.7,124.3h-4.3v17.1h3.9c2.6,0,3.9-1.2,3.9-3.9v-9.8
			C186.1,125.4,185,124.3,182.7,124.3z"/>
		<path fill="#84A0A0" d="M214.3,150.5v6.7c0,5.7-2.8,8.5-8.5,8.5h-1.4c-5.6,0-8.4-2.8-8.4-8.4v-9.6h5.1v9.8c0,2.4,1.1,3.5,3.5,3.5
			h1c2.4,0,3.5-1.1,3.5-3.5v-6.9c0-2.3-0.8-3.3-2.3-4.4l-6.4-4.6c-3.4-2.4-4.4-4.8-4.4-8.5v-5.5c0-5.7,2.8-8.5,8.5-8.5h1.3
			c5.6,0,8.4,2.8,8.4,8.4v8.2h-5.1v-8.4c0-2.4-1.1-3.5-3.5-3.5h-0.9c-2.4,0-3.5,1.1-3.5,3.5v5.7c0,2.3,0.8,3.3,2.3,4.4l6.3,4.6
			C213.3,144.4,214.3,146.5,214.3,150.5z"/>
	</g>
	<g>
		<path fill="#84A0A0" d="M202.3,191.5c2-2,4.2-3.1,6.6-3.8l0.3,1c-2.2,0.5-4.4,1.6-6.3,3.5c-2.5,2.5-2.9,5.8-0.8,7.8
			c1.8,1.7,3.8,1.7,8.3-0.4c4.6-2.1,6.9-2.3,8.9-0.4c2.2,2.2,1.8,5.7-0.8,8.4c-1.7,1.7-3.4,2.6-5.3,3.3l-0.3-1
			c1.8-0.6,3.5-1.5,5.1-3.1c2.3-2.4,2.5-5.2,0.8-6.9c-1.6-1.6-3.7-1.4-7.9,0.6c-4.9,2.3-7.3,2.2-9.3,0.2
			C198.9,198.4,199.4,194.5,202.3,191.5z"/>
		<path fill="#84A0A0" d="M186.6,204.1c3.8-2.4,7.9-1.1,10.7,3.3l7.5,12.2l-0.9,0.5l-7.4-12.1c-2.5-4.1-6.1-5.1-9.4-3.1
			c-3.2,2-4,5.7-1.5,9.7l7.5,12.2l-0.9,0.5l-7.5-12.2C181.9,210.7,182.7,206.5,186.6,204.1z"/>
		<path fill="#84A0A0" d="M171.9,220.3l3.7-1.1l-2.5-7.9l1-0.3l6.7,21.4l-5.2,1.6c-4.5,1.4-8.2,0.2-9.5-4.1
			C164.5,225.1,167.3,221.7,171.9,220.3z M175.4,233l4.1-1.3l-3.7-11.7l-3.8,1.2c-3.9,1.2-6.4,4.1-5.1,8.3
			C168.1,233.2,171.2,234.3,175.4,233z"/>
		<path fill="#84A0A0" d="M156.5,215.7l1.8,22.3l-13,1l-0.1-0.9l12-1l-0.8-9.5l-10.7,0.9l-0.1-0.9l10.7-0.9l-0.8-10.1l-12.1,1
			l-0.1-0.9L156.5,215.7z"/>
		<path fill="#84A0A0" d="M123.5,214.2l3.9,7.1c1.3,2.4,2.2,3.4,4.4,3.7l3.4,0.5l1.5-9.3l1,0.2l-3.5,22.1l-6.4-1
			c-4.4-0.7-6.6-3.4-6-7.1c0.6-4.1,4.2-5.4,7.3-5.6c-1.1-0.6-1.7-1.3-2.6-3.1l-4.4-7.7l0,0L123.5,214.2z M128,236.7l5.3,0.8
			l1.8-11.1l-3.9-0.6c-4.2-0.7-7.9,1.1-8.5,4.7C122.2,233.8,124.1,236,128,236.7z"/>
		<path fill="#84A0A0" d="M117.3,211.9l-7.4,21.1l-0.9-0.3l7.4-21.1L117.3,211.9z"/>
		<path fill="#84A0A0" d="M102.9,204.9c4.3,2.5,5.1,8.5,1.7,14.4c-3.4,5.9-9.1,8.2-13.4,5.6c-4.3-2.5-5.1-8.5-1.7-14.4
			C92.9,204.6,98.6,202.4,102.9,204.9z M91.7,224.1c3.9,2.3,8.9,0,12-5.3c3.1-5.3,2.6-10.8-1.3-13.1c-3.9-2.3-8.9,0-12,5.3
			C87.2,216.3,87.7,221.8,91.7,224.1z"/>
		<path fill="#84A0A0" d="M81,187.3l-1,8c-0.4,2.7-0.2,4,1.4,5.6l2.5,2.4l6.6-6.6l0.7,0.7l-15.8,15.9l-4.6-4.6
			c-3.1-3.1-3.4-6.6-0.7-9.3c2.9-2.9,6.6-1.9,9.2-0.2c-0.5-1.2-0.6-2-0.3-4l1-8.8l0,0L81,187.3z M71.5,208.2l3.8,3.8l7.9-8l-2.8-2.8
			c-3-3-7-3.8-9.6-1.2C68.5,202.4,68.7,205.4,71.5,208.2z"/>
	</g>
	<g>
		<path fill="#84A0A0" d="M85.7,95.4c-2,2-4.2,3.1-6.6,3.8l-0.3-1c2.2-0.5,4.4-1.6,6.3-3.5c2.5-2.5,2.9-5.8,0.8-7.8
			c-1.8-1.7-3.8-1.7-8.3,0.4c-4.6,2.1-6.9,2.3-8.9,0.4c-2.2-2.2-1.8-5.7,0.8-8.4c1.7-1.7,3.4-2.6,5.3-3.3l0.3,1
			c-1.8,0.6-3.5,1.5-5.1,3.1c-2.3,2.4-2.5,5.2-0.8,6.9c1.6,1.6,3.7,1.4,7.9-0.6c4.9-2.3,7.3-2.2,9.4-0.2
			C89.1,88.6,88.6,92.5,85.7,95.4z"/>
		<path fill="#84A0A0" d="M101.4,82.9c-3.8,2.4-7.9,1.1-10.7-3.3l-7.5-12.2l0.9-0.5L91.6,79c2.5,4.1,6.1,5.1,9.4,3.1
			c3.2-2,4-5.7,1.5-9.7L95,60.2l0.9-0.5l7.5,12.2C106.1,76.3,105.3,80.5,101.4,82.9z"/>
		<path fill="#84A0A0" d="M116.1,66.7l-3.7,1.1l2.5,7.9l-1,0.3l-6.7-21.4l5.2-1.6c4.5-1.4,8.2-0.2,9.5,4.1
			C123.5,61.9,120.7,65.3,116.1,66.7z M112.6,54l-4.1,1.3l3.7,11.7l3.8-1.2c3.9-1.2,6.4-4.1,5.1-8.3C119.9,53.8,116.8,52.7,112.6,54
			z"/>
		<path fill="#84A0A0" d="M131.5,71.3L129.8,49l13-1l0.1,0.9l-12,1l0.8,9.5l10.7-0.9l0.1,0.9l-10.7,0.9l0.8,10.1l12.1-1l0.1,0.9
			L131.5,71.3z"/>
		<path fill="#84A0A0" d="M164.5,72.8l-3.9-7.1c-1.3-2.4-2.2-3.4-4.4-3.7l-3.4-0.5l-1.5,9.3l-1-0.2l3.5-22.1l6.4,1
			c4.4,0.7,6.6,3.4,6,7.1c-0.6,4.1-4.2,5.4-7.3,5.6c1.1,0.6,1.7,1.3,2.6,3.1l4.4,7.7l0,0L164.5,72.8z M160,50.3l-5.3-0.8l-1.8,11.1
			l3.9,0.6c4.2,0.7,7.9-1.1,8.5-4.7C165.8,53.2,163.9,50.9,160,50.3z"/>
		<path fill="#84A0A0" d="M170.7,75l7.4-21.1l0.9,0.3l-7.4,21.1L170.7,75z"/>
		<path fill="#84A0A0" d="M185.1,82.1c-4.3-2.5-5.1-8.5-1.7-14.4c3.4-5.9,9.1-8.2,13.4-5.6c4.3,2.5,5.1,8.5,1.7,14.4
			C195.1,82.3,189.4,84.6,185.1,82.1z M196.3,62.9c-3.9-2.3-8.9,0-12,5.3c-3.1,5.3-2.6,10.8,1.3,13.1c3.9,2.3,8.9,0,12-5.3
			C200.8,70.7,200.3,65.2,196.3,62.9z"/>
		<path fill="#84A0A0" d="M207,99.7l1-8c0.4-2.7,0.2-4-1.4-5.6l-2.5-2.4l-6.6,6.6l-0.7-0.7l15.8-15.9l4.6,4.6
			c3.1,3.1,3.4,6.6,0.7,9.3c-2.9,2.9-6.6,1.9-9.2,0.2c0.5,1.2,0.6,2,0.3,4l-1,8.8l0,0L207,99.7z M216.5,78.8l-3.8-3.8l-7.9,8
			l2.8,2.8c3,3,7,3.8,9.6,1.2C219.5,84.6,219.3,81.6,216.5,78.8z"/>
	</g>
</g>
</svg>
