<svg xmlns="http://www.w3.org/2000/svg" viewBox="0 0 288 288"><path fill="#84A0A0" d="M144 275.5c-72.5 0-131.5-59-131.5-131.5S71.5 12.5 144 12.5s131.5 59 131.5 131.5-59 131.5-131.5 131.5zm0-249C79.2 26.5 26.5 79.2 26.5 144S79.2 261.5 144 261.5 261.5 208.8 261.5 144 208.8 26.5 144 26.5z"/><path d="M88 155.5l5.8-36h8.1v45.7h-5.1v-37.8l-6.3 37.8h-5.4l-6.3-37.8v37.8h-5v-45.7H82l6 36zm29.2 10.1h-2c-5.7 0-8.5-2.8-8.5-8.5v-29.5c0-5.7 2.8-8.5 8.5-8.5h2c5.7 0 8.5 2.8 8.5 8.5v29.5c0 5.7-2.8 8.5-8.5 8.5zm-.2-41.7h-1.6c-2.4 0-3.5 1.1-3.5 3.5v30c0 2.4 1.1 3.5 3.5 3.5h1.6c2.4 0 3.5-1.1 3.5-3.5v-30c0-2.4-1.1-3.5-3.5-3.5zm17.9 41.3v-40.9H128v-4.8h19v4.8h-6.9v40.9h-5.2zm24.9.4h-2c-5.7 0-8.5-2.8-8.5-8.5v-29.5c0-5.7 2.8-8.5 8.5-8.5h2c5.7 0 8.5 2.8 8.5 8.5v29.5c0 5.7-2.8 8.5-8.5 8.5zm-.2-41.7H158c-2.4 0-3.5 1.1-3.5 3.5v30c0 2.4 1.1 3.5 3.5 3.5h1.6c2.4 0 3.5-1.1 3.5-3.5v-30c0-2.4-1.1-3.5-3.5-3.5zm31.8 25.9v15.4h-5.2V150c0-2.7-1.2-4-4-4h-3.9v19.2h-5.2v-45.7h9.7c5.7 0 8.5 2.8 8.5 8.5v8.5c0 4.1-1.4 6.1-4 7.2 2.9.8 4.1 2.6 4.1 6.1zm-8.7-25.5h-4.3v17.1h3.9c2.6 0 3.9-1.2 3.9-3.9v-9.8c-.1-2.3-1.2-3.4-3.5-3.4zm31.6 26.2v6.7c0 5.7-2.8 8.5-8.5 8.5h-1.4c-5.6 0-8.4-2.8-8.4-8.4v-9.6h5.1v9.8c0 2.4 1.1 3.5 3.5 3.5h1c2.4 0 3.5-1.1 3.5-3.5v-6.9c0-2.3-.8-3.3-2.3-4.4l-6.4-4.6c-3.4-2.4-4.4-4.8-4.4-8.5v-5.5c0-5.7 2.8-8.5 8.5-8.5h1.3c5.6 0 8.4 2.8 8.4 8.4v8.2h-5.1v-8.4c0-2.4-1.1-3.5-3.5-3.5h-.9c-2.4 0-3.5 1.1-3.5 3.5v5.7c0 2.3.8 3.3 2.3 4.4l6.3 4.6c3.5 2.4 4.5 4.5 4.5 8.5zm-12 41c2-2 4.2-3.1 6.6-3.8l.3 1c-2.2.5-4.4 1.6-6.3 3.5-2.5 2.5-2.9 5.8-.8 7.8 1.8 1.7 3.8 1.7 8.3-.4 4.6-2.1 6.9-2.3 8.9-.4 2.2 2.2 1.8 5.7-.8 8.4-1.7 1.7-3.4 2.6-5.3 3.3l-.3-1c1.8-.6 3.5-1.5 5.1-3.1 2.3-2.4 2.5-5.2.8-6.9-1.6-1.6-3.7-1.4-7.9.6-4.9 2.3-7.3 2.2-9.3.2-2.7-2.3-2.2-6.2.7-9.2zm-15.7 12.6c3.8-2.4 7.9-1.1 10.7 3.3l7.5 12.2-.9.5-7.4-12.1c-2.5-4.1-6.1-5.1-9.4-3.1-3.2 2-4 5.7-1.5 9.7l7.5 12.2-.9.5-7.5-12.2c-2.8-4.4-2-8.6 1.9-11zm-14.7 16.2l3.7-1.1-2.5-7.9 1-.3 6.7 21.4-5.2 1.6c-4.5 1.4-8.2.2-9.5-4.1-1.6-4.8 1.2-8.2 5.8-9.6zm3.5 12.7l4.1-1.3-3.7-11.7-3.8 1.2c-3.9 1.2-6.4 4.1-5.1 8.3 1.2 3.7 4.3 4.8 8.5 3.5zm-18.9-17.3l1.8 22.3-13 1-.1-.9 12-1-.8-9.5-10.7.9-.1-.9 10.7-.9-.8-10.1-12.1 1-.1-.9 13.2-1zm-33-1.5l3.9 7.1c1.3 2.4 2.2 3.4 4.4 3.7l3.4.5 1.5-9.3 1 .2-3.5 22.1-6.4-1c-4.4-.7-6.6-3.4-6-7.1.6-4.1 4.2-5.4 7.3-5.6-1.1-.6-1.7-1.3-2.6-3.1l-4.4-7.7 1.4.2zm4.5 22.5l5.3.8 1.8-11.1-3.9-.6c-4.2-.7-7.9 1.1-8.5 4.7-.5 3.3 1.4 5.5 5.3 6.2zm-10.7-24.8l-7.4 21.1-.9-.3 7.4-21.1.9.3zm-14.4-7c4.3 2.5 5.1 8.5 1.7 14.4-3.4 5.9-9.1 8.2-13.4 5.6-4.3-2.5-5.1-8.5-1.7-14.4 3.4-5.9 9.1-8.1 13.4-5.6zm-11.2 19.2c3.9 2.3 8.9 0 12-5.3 3.1-5.3 2.6-10.8-1.3-13.1-3.9-2.3-8.9 0-12 5.3-3.2 5.3-2.7 10.8 1.3 13.1zM81 187.3l-1 8c-.4 2.7-.2 4 1.4 5.6l2.5 2.4 6.6-6.6.7.7-15.8 15.9-4.6-4.6c-3.1-3.1-3.4-6.6-.7-9.3 2.9-2.9 6.6-1.9 9.2-.2-.5-1.2-.6-2-.3-4l1-8.8 1 .9zm-9.5 20.9l3.8 3.8 7.9-8-2.8-2.8c-3-3-7-3.8-9.6-1.2-2.3 2.4-2.1 5.4.7 8.2zM85.7 95.4c-2 2-4.2 3.1-6.6 3.8l-.3-1c2.2-.5 4.4-1.6 6.3-3.5 2.5-2.5 2.9-5.8.8-7.8-1.8-1.7-3.8-1.7-8.3.4-4.6 2.1-6.9 2.3-8.9.4-2.2-2.2-1.8-5.7.8-8.4 1.7-1.7 3.4-2.6 5.3-3.3l.3 1c-1.8.6-3.5 1.5-5.1 3.1-2.3 2.4-2.5 5.2-.8 6.9 1.6 1.6 3.7 1.4 7.9-.6 4.9-2.3 7.3-2.2 9.4-.2 2.6 2.4 2.1 6.3-.8 9.2zm15.7-12.5c-3.8 2.4-7.9 1.1-10.7-3.3l-7.5-12.2.9-.5L91.6 79c2.5 4.1 6.1 5.1 9.4 3.1 3.2-2 4-5.7 1.5-9.7L95 60.2l.9-.5 7.5 12.2c2.7 4.4 1.9 8.6-2 11zm14.7-16.2l-3.7 1.1 2.5 7.9-1 .3-6.7-21.4 5.2-1.6c4.5-1.4 8.2-.2 9.5 4.1 1.6 4.8-1.2 8.2-5.8 9.6zM112.6 54l-4.1 1.3 3.7 11.7 3.8-1.2c3.9-1.2 6.4-4.1 5.1-8.3-1.2-3.7-4.3-4.8-8.5-3.5zm18.9 17.3L129.8 49l13-1 .1.9-12 1 .8 9.5 10.7-.9.1.9-10.7.9.8 10.1 12.1-1 .1.9-13.3 1zm33 1.5l-3.9-7.1c-1.3-2.4-2.2-3.4-4.4-3.7l-3.4-.5-1.5 9.3-1-.2 3.5-22.1 6.4 1c4.4.7 6.6 3.4 6 7.1-.6 4.1-4.2 5.4-7.3 5.6 1.1.6 1.7 1.3 2.6 3.1l4.4 7.7-1.4-.2zM160 50.3l-5.3-.8-1.8 11.1 3.9.6c4.2.7 7.9-1.1 8.5-4.7.5-3.3-1.4-5.6-5.3-6.2zM170.7 75l7.4-21.1.9.3-7.4 21.1-.9-.3zm14.4 7.1c-4.3-2.5-5.1-8.5-1.7-14.4 3.4-5.9 9.1-8.2 13.4-5.6 4.3 2.5 5.1 8.5 1.7 14.4-3.4 5.8-9.1 8.1-13.4 5.6zm11.2-19.2c-3.9-2.3-8.9 0-12 5.3-3.1 5.3-2.6 10.8 1.3 13.1 3.9 2.3 8.9 0 12-5.3 3.2-5.3 2.7-10.8-1.3-13.1zM207 99.7l1-8c.4-2.7.2-4-1.4-5.6l-2.5-2.4-6.6 6.6-.7-.7 15.8-15.9 4.6 4.6c3.1 3.1 3.4 6.6.7 9.3-2.9 2.9-6.6 1.9-9.2.2.5 1.2.6 2 .3 4l-1 8.8-1-.9zm9.5-20.9l-3.8-3.8-7.9 8 2.8 2.8c3 3 7 3.8 9.6 1.2 2.3-2.4 2.1-5.4-.7-8.2z" fill="#84A0A0"/></svg>