<svg xmlns="http://www.w3.org/2000/svg" viewBox="0 0 346.8 67.7"><path fill="#FFF" d="M33.3 64.2C16.6 64.2 3 50.6 3 33.9 3 17.1 16.6 3.5 33.3 3.5c16.7 0 30.3 13.6 30.3 30.3 0 16.8-13.6 30.4-30.3 30.4zm0-57.4c-15 0-27.1 12.1-27.1 27.1C6.2 48.8 18.3 61 33.3 61c14.9 0 27.1-12.2 27.1-27.1 0-15-12.2-27.1-27.1-27.1z"/><path fill="#FFF" d="M33.3 43.2l4.1-25.5h5.7v32.4h-3.6V23.3l-4.4 26.8h-3.8l-4.4-26.8v26.8h-3.5V17.7h5.8l4.1 25.5z"/><g fill="#FFF"><path d="M89.6 39.3v4.6c0 3.9-1.9 5.9-5.9 5.9h-1c-3.9 0-5.8-1.9-5.8-5.8v-6.7h3.5v6.8c0 1.6.8 2.4 2.4 2.4h.7c1.6 0 2.4-.8 2.4-2.4v-4.8c0-1.6-.5-2.3-1.6-3L80 33.1c-2.4-1.7-3-3.3-3-5.9v-3.8c0-3.9 1.9-5.9 5.9-5.9h.9c3.9 0 5.8 1.9 5.8 5.8V29H86v-5.8c0-1.6-.8-2.4-2.4-2.4H83c-1.6 0-2.4.8-2.4 2.4v4c0 1.6.6 2.3 1.6 3l4.4 3.2c2.3 1.7 3 3.1 3 5.9zM109.1 43.9c0 3.9-1.9 5.9-5.9 5.9h-1.1c-3.9 0-5.9-1.9-5.9-5.9V17.8h3.6v26.3c0 1.6.8 2.4 2.4 2.4h.9c1.6 0 2.4-.8 2.4-2.4V17.8h3.6v26.1zM119.5 49.5h-3.6V17.8h6.3c3.9 0 5.9 1.9 5.9 5.9v8c0 3.9-1.9 5.9-5.9 5.9h-2.6v11.9zm2.5-28.4h-2.5v13.2h2.5c1.6 0 2.4-.8 2.4-2.4v-8.4c0-1.6-.8-2.4-2.4-2.4zM144.3 17.8v3.4H138v10.5h6.1V35H138v11.2h6.4v3.4h-10.1V17.8h10zM163.5 38.8v10.7h-3.6V38.9c0-1.9-.9-2.8-2.8-2.8h-2.7v13.3h-3.6V17.8h6.7c3.9 0 5.9 1.9 5.9 5.9v5.9c0 2.9-1 4.3-2.8 5 2 .5 2.9 1.8 2.9 4.2zm-6.1-17.7h-3V33h2.7c1.8 0 2.7-.9 2.7-2.7v-6.8c0-1.6-.8-2.4-2.4-2.4zM173.9 49.5h-3.6V17.8h3.6v31.7zM187.9 49.8h-1.4c-3.9 0-5.9-1.9-5.9-5.9V23.4c0-3.9 1.9-5.9 5.9-5.9h1.4c3.9 0 5.9 1.9 5.9 5.9v20.5c0 3.9-1.9 5.9-5.9 5.9zm-.1-29h-1.1c-1.6 0-2.4.8-2.4 2.4V44c0 1.6.8 2.4 2.4 2.4h1.1c1.6 0 2.4-.8 2.4-2.4V23.2c0-1.6-.8-2.4-2.4-2.4zM213.3 38.8v10.7h-3.6V38.9c0-1.9-.9-2.8-2.8-2.8h-2.7v13.3h-3.6V17.8h6.7c3.9 0 5.9 1.9 5.9 5.9v5.9c0 2.9-1 4.3-2.8 5 2 .5 2.9 1.8 2.9 4.2zm-6.1-17.7h-3V33h2.7c1.8 0 2.7-.9 2.7-2.7v-6.8c0-1.6-.8-2.4-2.4-2.4zM238.6 42.8l4-25h5.6v31.7h-3.5V23.3l-4.3 26.2h-3.7l-4.3-26.2v26.2H229V17.8h5.7l3.9 25zM262.2 49.8h-1.4c-3.9 0-5.9-1.9-5.9-5.9V23.4c0-3.9 1.9-5.9 5.9-5.9h1.4c3.9 0 5.9 1.9 5.9 5.9v20.5c0 3.9-1.9 5.9-5.9 5.9zm-.1-29H261c-1.6 0-2.4.8-2.4 2.4V44c0 1.6.8 2.4 2.4 2.4h1.1c1.6 0 2.4-.8 2.4-2.4V23.2c0-1.6-.8-2.4-2.4-2.4zM277.9 49.5V21.1h-4.8v-3.4h13.1v3.4h-4.8v28.4h-3.5zM298.5 49.8h-1.4c-3.9 0-5.9-1.9-5.9-5.9V23.4c0-3.9 1.9-5.9 5.9-5.9h1.4c3.9 0 5.9 1.9 5.9 5.9v20.5c0 3.9-1.9 5.9-5.9 5.9zm-.1-29h-1.1c-1.6 0-2.4.8-2.4 2.4V44c0 1.6.8 2.4 2.4 2.4h1.1c1.6 0 2.4-.8 2.4-2.4V23.2c0-1.6-.8-2.4-2.4-2.4zM323.9 38.8v10.7h-3.6V38.9c0-1.9-.9-2.8-2.8-2.8h-2.7v13.3h-3.6V17.8h6.7c3.9 0 5.9 1.9 5.9 5.9v5.9c0 2.9-1 4.3-2.8 5 2 .5 2.9 1.8 2.9 4.2zm-6.1-17.7h-3V33h2.7c1.8 0 2.7-.9 2.7-2.7v-6.8c0-1.6-.8-2.4-2.4-2.4zM343.2 39.3v4.6c0 3.9-1.9 5.9-5.9 5.9h-1c-3.9 0-5.8-1.9-5.8-5.8v-6.7h3.5v6.8c0 1.6.8 2.4 2.4 2.4h.7c1.6 0 2.4-.8 2.4-2.4v-4.8c0-1.6-.5-2.3-1.6-3l-4.4-3.2c-2.4-1.7-3-3.3-3-5.9v-3.8c0-3.9 1.9-5.9 5.9-5.9h.9c3.9 0 5.8 1.9 5.8 5.8V29h-3.5v-5.8c0-1.6-.8-2.4-2.4-2.4h-.6c-1.6 0-2.4.8-2.4 2.4v4c0 1.6.6 2.3 1.6 3l4.4 3.2c2.2 1.7 3 3.1 3 5.9z"/></g><g fill="#FFF"><path d="M76.3 55.7H79c.9 0 1.5.2 2 .7.3.3.5.8.5 1.3 0 1.1-.7 1.6-1.3 1.9.9.3 1.7.8 1.7 1.9 0 1.4-1.1 2.2-2.8 2.2h-2.8v-8zm4.4 2.2c0-.8-.6-1.3-1.7-1.3h-1.8v2.8h1.7c1.1-.1 1.8-.6 1.8-1.5zM79 60.1h-1.9V63h2c1.2 0 1.9-.5 1.9-1.5 0-.9-.7-1.4-2-1.4zM84.3 55.7h2.8c.9 0 1.7.3 2.1.8.4.4.6 1 .6 1.7 0 1.3-.8 2.1-1.9 2.3l2.2 3.3h-1l-2-3.1h-1.8v3.1h-.9v-8.1zm2.6 4.2c1.3 0 2-.7 2-1.7 0-1.1-.7-1.7-1.9-1.7h-1.8v3.4h1.7zM94.8 55.7h.9l3.1 8.1h-.9l-.9-2.1h-3.6l-.8 2.1h-.9l3.1-8.1zm1.9 5.2l-1.5-4.1-1.5 4.1h3zM100.9 55.7h2.3c2.2 0 3.8 1.6 3.8 4v.1c0 2.4-1.5 4-3.8 4h-2.3v-8.1zm.9.8V63h1.4c1.8 0 2.9-1.3 2.9-3.2v-.1c0-1.9-1.2-3.2-2.9-3.2h-1.4zM109.5 55.7h2.3c2.2 0 3.8 1.6 3.8 4v.1c0 2.4-1.5 4-3.8 4h-2.3v-8.1zm.9.8V63h1.4c1.8 0 2.9-1.3 2.9-3.2v-.1c0-1.9-1.2-3.2-2.9-3.2h-1.4zM117.8 59.8c0-2.5 1.4-4.2 3.5-4.2s3.5 1.7 3.5 4.1v.1c0 2.4-1.4 4.1-3.5 4.1s-3.5-1.7-3.5-4.1zm6 0c0-2-1.1-3.4-2.6-3.4s-2.6 1.4-2.6 3.3v.1c0 2 1.1 3.3 2.6 3.3s2.6-1.3 2.6-3.3zM126.9 59.8c0-2.5 1.5-4.2 3.5-4.2 1.1 0 1.8.4 2.5 1l-.5.7c-.5-.5-1.1-.8-1.9-.8-1.5 0-2.6 1.4-2.6 3.3 0 2 1.1 3.3 2.6 3.3.8 0 1.4-.3 2-.9l.5.6c-.7.7-1.5 1.1-2.6 1.1-2 0-3.5-1.6-3.5-4.1zM135.2 55.7h.9v4.7l3.8-4.7h1.1l-2.9 3.5 3.1 4.5h-1l-2.7-3.8-1.4 1.6v2.3h-.9v-8.1zM147.8 56.6l-1.3.5-.1-.8 1.7-.6h.6v8.1h-.9v-7.2zM151 62.9l.5-.6c.5.5 1.2.9 1.9.9 1 0 1.8-.8 1.8-1.8 0-1.1-.7-1.7-1.8-1.7-.6 0-1 .2-1.4.4l-.6-.4.2-3.9h4v.8h-3.3l-.2 2.6c.4-.2.8-.3 1.3-.3 1.4 0 2.5.9 2.5 2.4 0 1.6-1.1 2.6-2.6 2.6-.8 0-1.7-.4-2.3-1zM159.2 56.6l-1.3.5-.1-.8 1.7-.6h.6v8.1h-.9v-7.2zM162.6 59.8c0-2.5 1.1-4.2 2.9-4.2 1.8 0 2.9 1.7 2.9 4.1v.1c0 2.4-1.1 4.1-2.9 4.1-1.8 0-2.9-1.7-2.9-4.1zm5 0c0-2-.8-3.4-2-3.4s-2 1.4-2 3.3v.1c0 1.9.8 3.3 2 3.3s2-1.3 2-3.3zM174.2 61.9h-3.7l-.2-.6 3.9-5.6h.8v5.5h1.1v.7H175v1.9h-.8v-1.9zm0-.7V57l-2.9 4.2h2.9z"/></g></svg>